<svg xmlns="http://www.w3.org/2000/svg" width="512" height="512" viewBox="0 0 512 512">
  <rect width="512" height="512" rx="108" fill="#f5f3ff"/>
  <!-- Stem -->
  <path d="M256 108 C256 108 256 148 256 168" stroke="#a78bfa" stroke-width="6" stroke-linecap="round" fill="none"/>
  <!-- Leaf -->
  <path d="M256 130 C274 118 298 122 304 140 C298 136 278 134 256 148 C256 148 256 130 256 130Z" fill="#6b9a5b" opacity="0.85"/>
  <!-- Grape berries - row 1 (top) -->
  <circle cx="256" cy="200" r="30" fill="#8b5cf6"/>
  <!-- Row 2 -->
  <circle cx="230" cy="252" r="30" fill="#7c3aed"/>
  <circle cx="282" cy="252" r="30" fill="#7c3aed"/>
  <!-- Row 3 -->
  <circle cx="204" cy="304" r="30" fill="#6d28d9"/>
  <circle cx="256" cy="304" r="30" fill="#6d28d9"/>
  <circle cx="308" cy="304" r="30" fill="#6d28d9"/>
  <!-- Row 4 -->
  <circle cx="230" cy="356" r="30" fill="#5b21b6"/>
  <circle cx="282" cy="356" r="30" fill="#5b21b6"/>
  <!-- Row 5 (bottom) -->
  <circle cx="256" cy="400" r="28" fill="#4c1d95"/>
  <!-- Highlights on berries -->
  <circle cx="246" cy="192" r="8" fill="white" opacity="0.35"/>
  <circle cx="220" cy="244" r="8" fill="white" opacity="0.35"/>
  <circle cx="272" cy="244" r="8" fill="white" opacity="0.35"/>
  <circle cx="194" cy="296" r="7" fill="white" opacity="0.3"/>
  <circle cx="246" cy="296" r="7" fill="white" opacity="0.3"/>
  <circle cx="298" cy="296" r="7" fill="white" opacity="0.3"/>
</svg>
